<svg width="1440" height="1024" viewBox="0 0 1440 1024" fill="none" xmlns="http://www.w3.org/2000/svg">
  <defs>
    <linearGradient id="bg" x1="720" y1="0" x2="720" y2="1024" gradientUnits="userSpaceOnUse">
      <stop stop-color="#F7F9FD"/>
      <stop offset="1" stop-color="#E1E7F2"/>
    </linearGradient>
    <radialGradient id="glow" cx="0" cy="0" r="1" gradientUnits="userSpaceOnUse" gradientTransform="translate(720 80) rotate(90) scale(280 760)">
      <stop stop-color="#A8B7E7" stop-opacity="0.32"/>
      <stop offset="1" stop-color="#A8B7E7" stop-opacity="0"/>
    </radialGradient>
  </defs>
  <rect width="1440" height="1024" fill="url(#bg)"/>
  <rect width="1440" height="1024" fill="url(#glow)"/>
  <rect x="28" y="30" width="300" height="964" rx="28" fill="rgba(255,255,255,0.84)"/>
  <rect x="350" y="30" width="770" height="964" rx="28" fill="rgba(255,255,255,0.78)"/>
  <rect x="1140" y="30" width="272" height="964" rx="28" fill="rgba(255,255,255,0.84)"/>

  <rect x="54" y="58" width="248" height="274" rx="28" fill="#FFFFFF"/>
  <circle cx="178" cy="145" r="56" fill="#24377B"/>
  <circle cx="178" cy="145" r="34" fill="#D6DEFF"/>
  <rect x="104" y="219" width="148" height="20" rx="10" fill="#111F50"/>
  <rect x="76" y="251" width="204" height="12" rx="6" fill="#91A4D8"/>
  <rect x="76" y="271" width="190" height="12" rx="6" fill="#C3CEE9"/>
  <rect x="76" y="292" width="204" height="18" rx="9" fill="#24377B"/>

  <g fill="#FFFFFF">
    <rect x="54" y="360" width="248" height="168" rx="24"/>
    <rect x="54" y="548" width="248" height="230" rx="24"/>
    <rect x="54" y="798" width="248" height="170" rx="24"/>
  </g>
  <g fill="#E9EEF8">
    <rect x="74" y="388" width="100" height="40" rx="14"/>
    <rect x="182" y="388" width="100" height="40" rx="14"/>
    <rect x="74" y="438" width="100" height="40" rx="14"/>
    <rect x="182" y="438" width="100" height="40" rx="14"/>
    <rect x="74" y="576" width="100" height="40" rx="14"/>
    <rect x="182" y="576" width="100" height="40" rx="14"/>
    <rect x="74" y="636" width="208" height="16" rx="8"/>
    <rect x="74" y="664" width="208" height="16" rx="8"/>
    <rect x="74" y="704" width="208" height="46" rx="14" fill="#24377B"/>
  </g>

  <rect x="382" y="58" width="706" height="72" rx="24" fill="#FFFFFF"/>
  <rect x="410" y="83" width="182" height="22" rx="11" fill="#24377B"/>
  <rect x="864" y="84" width="82" height="20" rx="10" fill="#E4EAF7"/>
  <rect x="960" y="84" width="110" height="20" rx="10" fill="#E4EAF7"/>

  <rect x="382" y="150" width="706" height="706" rx="28" fill="#F6F8FC"/>
  <rect x="418" y="186" width="634" height="634" rx="24" fill="#D2DAEC"/>
  <rect x="474" y="252" width="520" height="500" rx="18" fill="#BCC9E4"/>
  <path d="M550 626L650 484L742 562L842 392L934 626" stroke="#4CD7B2" stroke-width="12" stroke-linecap="round" stroke-linejoin="round"/>
  <path d="M562 360L900 360" stroke="#FC6F59" stroke-width="10" stroke-linecap="round"/>
  <circle cx="562" cy="360" r="10" fill="#FC6F59"/>
  <circle cx="900" cy="360" r="10" fill="#FC6F59"/>
  <rect x="660" y="324" width="142" height="42" rx="18" fill="#0D1630"/>
  <rect x="676" y="338" width="110" height="14" rx="7" fill="#F9F6EF"/>
  <rect x="836" y="720" width="168" height="10" rx="5" fill="#F9F6EF"/>
  <rect x="836" y="730" width="10" height="24" rx="5" fill="#F9F6EF"/>
  <rect x="994" y="730" width="10" height="24" rx="5" fill="#F9F6EF"/>

  <rect x="382" y="876" width="706" height="90" rx="24" fill="#FFFFFF"/>
  <rect x="416" y="907" width="150" height="12" rx="6" fill="#24377B"/>
  <rect x="590" y="907" width="132" height="12" rx="6" fill="#91A4D8"/>
  <rect x="746" y="907" width="120" height="12" rx="6" fill="#91A4D8"/>
  <rect x="890" y="907" width="164" height="12" rx="6" fill="#91A4D8"/>

  <g fill="#FFFFFF">
    <rect x="1162" y="58" width="228" height="188" rx="24"/>
    <rect x="1162" y="266" width="228" height="150" rx="24"/>
    <rect x="1162" y="436" width="228" height="252" rx="24"/>
    <rect x="1162" y="708" width="228" height="258" rx="24"/>
  </g>
  <g fill="#E9EEF8">
    <rect x="1184" y="92" width="88" height="12" rx="6"/>
    <rect x="1184" y="122" width="176" height="40" rx="14" fill="#24377B"/>
    <rect x="1184" y="176" width="176" height="40" rx="14" fill="#3F569F"/>
    <rect x="1184" y="300" width="176" height="40" rx="14" fill="#24377B"/>
    <rect x="1184" y="352" width="176" height="16" rx="8"/>
    <rect x="1184" y="470" width="96" height="18" rx="9"/>
    <rect x="1184" y="506" width="124" height="14" rx="7"/>
    <rect x="1184" y="532" width="124" height="14" rx="7"/>
    <rect x="1184" y="566" width="96" height="18" rx="9"/>
    <rect x="1184" y="602" width="124" height="14" rx="7"/>
    <rect x="1184" y="628" width="124" height="14" rx="7"/>
    <rect x="1184" y="742" width="92" height="18" rx="9"/>
    <rect x="1184" y="780" width="176" height="56" rx="16"/>
    <rect x="1184" y="850" width="176" height="56" rx="16"/>
  </g>
</svg>
